<?xml version="1.0" encoding="utf-8"?>
<!-- Generator: Adobe Illustrator 16.0.0, SVG Export Plug-In . SVG Version: 6.00 Build 0)  -->
<!DOCTYPE svg PUBLIC "-//W3C//DTD SVG 1.1//EN" "http://www.w3.org/Graphics/SVG/1.1/DTD/svg11.dtd">
<svg version="1.1" id="Layer_2" xmlns="http://www.w3.org/2000/svg" xmlns:xlink="http://www.w3.org/1999/xlink" x="0px" y="0px"
	 width="83.5px" height="67.5px" viewBox="0 0 83.5 67.5" enable-background="new 0 0 83.5 67.5" xml:space="preserve">
<path opacity="0.5" fill="#0099CC" d="M78.62,15.134c0,0.932-0.754,1.687-1.687,1.687H65.127c-0.931,0-1.687-0.755-1.687-1.687
	v-7.73c0-0.931,0.755-1.687,1.687-1.687h11.806c0.932,0,1.687,0.755,1.687,1.687V15.134z"/>
<path opacity="0.5" fill="#0099CC" d="M59.505,30.313c0,0.932-0.754,1.687-1.687,1.687H46.013c-0.931,0-1.687-0.755-1.687-1.687
	v-7.73c0-0.932,0.755-1.687,1.687-1.687h11.806c0.933,0,1.687,0.755,1.687,1.687V30.313z"/>
<path opacity="0.5" fill="#0099CC" d="M21.276,30.313c0,0.932-0.754,1.687-1.687,1.687H7.784c-0.931,0-1.687-0.755-1.687-1.687
	v-7.73c0-0.932,0.755-1.687,1.687-1.687H19.59c0.932,0,1.687,0.755,1.687,1.687V30.313z"/>
<path opacity="0.25" fill="#0099CC" d="M40.391,45.493c0,0.931-0.754,1.687-1.687,1.687H26.898c-0.931,0-1.687-0.755-1.687-1.687
	v-7.73c0-0.932,0.755-1.687,1.687-1.687h11.806c0.932,0,1.687,0.755,1.687,1.687V45.493z"/>
<path opacity="0.5" fill="#0099CC" d="M78.62,60.672c0,0.932-0.754,1.687-1.687,1.687H65.127c-0.931,0-1.687-0.755-1.687-1.687
	v-7.73c0-0.931,0.755-1.687,1.687-1.687h11.806c0.932,0,1.687,0.755,1.687,1.687V60.672z"/>
<path opacity="0.25" fill="#0099CC" d="M59.505,60.672c0,0.932-0.754,1.687-1.687,1.687H46.013c-0.931,0-1.687-0.755-1.687-1.687
	v-7.73c0-0.931,0.755-1.687,1.687-1.687h11.806c0.933,0,1.687,0.755,1.687,1.687V60.672z"/>
<g>
	<path fill="#0099CC" d="M59.505,15.134c0,0.932-0.754,1.687-1.687,1.687H46.013c-0.931,0-1.687-0.755-1.687-1.687v-7.73
		c0-0.931,0.755-1.687,1.687-1.687h11.806c0.933,0,1.687,0.755,1.687,1.687V15.134z"/>
	<path fill="#0099CC" d="M78.62,30.313c0,0.932-0.754,1.687-1.687,1.687H65.127c-0.931,0-1.687-0.755-1.687-1.687v-7.73
		c0-0.932,0.755-1.687,1.687-1.687h11.806c0.932,0,1.687,0.755,1.687,1.687V30.313z"/>
	
		<rect x="53.715" y="17.454" transform="matrix(0.7071 0.7071 -0.7071 0.7071 31.2511 -37.729)" fill="#0099CC" width="14.907" height="2.81"/>
</g>
<g>
	<path fill="#0099CC" d="M21.276,15.134c0,0.932-0.754,1.687-1.687,1.687H7.784c-0.931,0-1.687-0.755-1.687-1.687v-7.73
		c0-0.931,0.755-1.687,1.687-1.687H19.59c0.932,0,1.687,0.755,1.687,1.687V15.134z"/>
	<path fill="#0099CC" d="M40.391,30.313c0,0.932-0.754,1.687-1.687,1.687H26.898c-0.931,0-1.687-0.755-1.687-1.687v-7.73
		c0-0.932,0.755-1.687,1.687-1.687h11.806c0.932,0,1.687,0.755,1.687,1.687V30.313z"/>
	<path fill="#0099CC" d="M21.276,45.493c0,0.931-0.754,1.687-1.687,1.687H7.784c-0.931,0-1.687-0.755-1.687-1.687v-7.73
		c0-0.932,0.755-1.687,1.687-1.687H19.59c0.932,0,1.687,0.755,1.687,1.687V45.493z"/>
	
		<rect x="15.767" y="17.454" transform="matrix(0.7071 0.7071 -0.7071 0.7071 20.1364 -10.8959)" fill="#0099CC" width="14.907" height="2.81"/>
	
		<rect x="15.767" y="32.352" transform="matrix(0.7071 -0.7071 0.7071 0.7071 -17.0683 26.3059)" fill="#0099CC" width="14.908" height="2.81"/>
</g>
<g>
	<path fill="#0099CC" d="M59.505,45.493c0,0.931-0.754,1.687-1.687,1.687H46.013c-0.931,0-1.687-0.755-1.687-1.687v-7.73
		c0-0.932,0.755-1.687,1.687-1.687h11.806c0.933,0,1.687,0.755,1.687,1.687V45.493z"/>
	<path fill="#0099CC" d="M40.391,60.672c0,0.932-0.754,1.687-1.687,1.687H26.898c-0.931,0-1.687-0.755-1.687-1.687v-7.73
		c0-0.931,0.755-1.687,1.687-1.687h11.806c0.932,0,1.687,0.755,1.687,1.687V60.672z"/>
	
		<rect x="34.882" y="48.093" transform="matrix(0.7071 -0.7071 0.7071 0.7071 -22.6008 44.4334)" fill="#0099CC" width="14.907" height="2.811"/>
</g>
</svg>
